<svg width="57" height="56" viewBox="0 0 57 56" fill="none" xmlns="http://www.w3.org/2000/svg">
<path d="M41.5914 40.3966C30.5499 39.2779 22.5066 29.4197 23.6253 18.3783C24.0715 13.9794 25.9037 10.0565 28.6469 7C20.5277 9.52326 14.288 16.6878 13.3768 25.6796C13.1307 28.1071 13.2923 30.4813 13.8044 32.7348C13.8169 32.7199 13.828 32.7062 13.8405 32.6913C14.4893 31.9654 15.1928 31.5975 15.9287 31.5975C17.4899 31.5975 18.6595 33.2158 19.5135 34.3979C19.8192 34.8205 20.2356 34.9933 20.9541 34.9933C21.2611 34.9933 21.5843 34.9635 21.9273 34.9311C22.2816 34.8976 22.647 34.864 23.0087 34.864C23.7061 34.864 24.7129 34.9771 25.4114 35.9579C25.8465 36.5682 25.9994 37.1648 25.8676 37.7341C25.6227 38.7931 24.4593 39.4233 23.4338 39.9789C22.8509 40.2946 22.2468 40.6215 22.0119 40.9261C21.3021 41.8446 20.3077 42.0435 19.6216 42.1119C19.6005 42.1144 19.5806 42.1156 19.5595 42.1156C19.4899 42.1156 19.4202 42.1032 19.3531 42.0808C18.8783 41.9142 18.4221 41.6818 17.9796 41.4469C21.5196 45.9216 26.7949 49.0154 32.9191 49.6357C42.4913 50.6052 51.2481 45.2442 55.0256 36.9473C51.2357 39.565 46.531 40.8987 41.5901 40.3978L41.5914 40.3966Z" fill="#641EC8"/>
<path d="M19.5616 41.494C18.4454 41.1012 17.3727 40.2821 16.2627 39.9763C14.7587 39.5636 14.1844 40.778 12.8569 41.0291C11.6711 41.2541 11.1863 40.164 10.192 39.8582C8.96885 39.4828 7.56676 40.3641 6.2318 40.1155C3.90493 39.6817 2.85833 37.3723 5.78805 37.0081C6.70164 36.8949 7.66123 37.1075 8.25413 36.3008C8.73393 35.6495 8.37968 34.7309 9.31689 34.368C10.2703 33.9988 11.2808 34.8527 12.2217 34.8602C13.4498 34.8689 13.5778 33.9205 14.305 33.1076C16.2254 30.9609 17.8736 33.1884 19.0109 34.7632C20.4466 36.7508 23.5105 34.3593 24.9064 36.3194C26.5472 38.6215 22.4963 39.2865 21.5218 40.5468C21.0407 41.1696 20.372 41.4132 19.5616 41.494Z" fill="#C8C8C8"/>
<path d="M45.8455 30.1984C44.9433 29.7712 44.1148 28.9901 43.2102 28.6364C41.9843 28.1586 41.3962 29.1274 40.2603 29.222C39.2457 29.3071 38.9342 28.35 38.1266 28.0065C37.1331 27.5845 35.8796 28.2014 34.7812 27.876C32.8666 27.3086 32.1904 25.2792 34.6806 25.2298C35.457 25.2148 36.2436 25.477 36.8117 24.852C37.2712 24.3474 37.0543 23.5457 37.8725 23.3231C38.7047 23.0967 39.478 23.9016 40.2668 23.9901C41.2966 24.1048 41.4869 23.3202 42.1681 22.7017C43.9673 21.0684 45.1555 23.0816 45.9721 24.5025C47.0029 26.2958 49.783 24.557 50.7828 26.3239C51.9583 28.399 48.501 28.6027 47.5731 29.5751C47.115 30.0555 46.5326 30.2015 45.8455 30.1984Z" fill="#C8C8C8"/>
<path d="M37.9605 18.5807C38.4355 18.4541 39.1558 18.4828 39.5474 18.1641C39.9762 17.8134 39.9827 17.1235 40.307 16.6923C40.4753 17.1822 40.4012 17.8724 40.7415 18.2896C40.8986 18.482 41.1274 18.5628 41.3482 18.6596C41.5811 18.7619 42.026 18.8631 42.1884 19.0656C41.889 19.1261 41.5896 19.1866 41.2911 19.2483C41.0551 19.2975 40.7908 19.3248 40.599 19.4851C40.4026 19.6501 40.3255 19.9141 40.23 20.1424C40.1153 20.4141 40.0006 20.6847 39.8727 20.9508C39.8602 20.9495 39.8467 20.948 39.8341 20.9467C39.7355 20.4768 39.7374 19.74 39.4286 19.3546C39.1143 18.9613 38.3964 18.8296 37.9575 18.6193C37.959 18.6058 37.9604 18.5922 37.9618 18.5787L37.9605 18.5807Z" fill="#641EC8"/>
<path d="M36.8661 8.87426C37.0586 9.43518 37.1225 10.0259 37.2348 10.607C37.3274 11.0847 37.4053 11.6822 37.7357 12.0625C38.0654 12.4405 38.6308 12.6291 39.0761 12.8284C39.351 12.9519 39.6262 13.0734 39.9014 13.1949C40.0606 13.2652 40.5105 13.3796 40.5948 13.5318C40.0108 13.6723 39.4234 13.785 38.8337 13.8996C38.3398 13.9957 37.8109 14.0524 37.4186 14.3974C37.0252 14.7423 36.8689 15.2816 36.6757 15.7496C36.4614 16.2681 36.2814 16.8313 35.9571 17.2931C35.8099 16.7326 35.7282 16.1611 35.6285 15.5898C35.545 15.1067 35.4703 14.5486 35.1676 14.1449C34.8446 13.7137 34.2621 13.537 33.7869 13.3315C33.5034 13.2091 33.2209 13.0869 32.9345 12.9727C32.6935 12.877 32.42 12.8105 32.2343 12.6193C32.8059 12.4058 33.4392 12.3379 34.0396 12.2318C34.5261 12.1465 35.0024 12.0781 35.393 11.7498C35.7847 11.4205 35.9445 10.949 36.1286 10.4885C36.3467 9.94297 36.5626 9.3993 36.814 8.86883C36.8306 8.87057 36.8486 8.87033 36.8654 8.87102L36.8661 8.87426Z" fill="#641EC8"/>
<path d="M26.2952 16.0172C26.7232 15.8868 27.1702 15.8258 27.6091 15.7419C27.9383 15.6792 28.2754 15.6405 28.5402 15.4172C28.8037 15.1948 28.9124 14.8498 29.0394 14.5414C29.2041 14.1453 29.3664 13.7511 29.5421 13.3603C29.5557 13.3617 29.5704 13.3622 29.584 13.3626C29.7299 13.8037 29.7985 14.2684 29.874 14.7275C29.9282 15.0579 30.0003 15.367 30.2253 15.6266C30.4587 15.8955 30.7734 16.0116 31.0938 16.1441C31.4859 16.3072 31.8812 16.4802 32.2609 16.6706C31.8668 16.7697 31.4709 16.8455 31.0717 16.923C30.7167 16.9914 30.3241 17.0254 30.0292 17.2551C29.7607 17.4643 29.6473 17.773 29.5218 18.0773C29.3456 18.5028 29.179 18.9282 28.9678 19.3363C28.9521 19.3347 28.9367 19.331 28.9212 19.3283C28.8316 18.8931 28.7516 18.4567 28.6707 18.0191C28.608 17.6794 28.5622 17.3299 28.3267 17.0608C28.1045 16.8057 27.776 16.6997 27.4729 16.5733C27.0768 16.4086 26.6804 16.2461 26.2898 16.0693C26.2916 16.0516 26.2945 16.034 26.2974 16.0164L26.2952 16.0172Z" fill="#641EC8"/>
</svg>
