<svg width="88" height="56" viewBox="0 0 88 56" fill="none" xmlns="http://www.w3.org/2000/svg">
<path d="M50.9693 29.8174C50.6757 29.6235 50.4017 29.4222 50.109 29.2525C48.7434 28.4621 46.895 28.7007 45.6199 29.9274C44.1387 31.3526 44.0726 33.7351 45.3803 35.2591C45.9517 35.9256 46.6396 36.3935 47.5158 36.5464C48.7285 36.7589 49.8442 36.5426 50.7885 35.7205C51.6106 35.0046 52.0879 34.0949 52.1746 32.995C52.1801 32.9204 52.1839 32.8458 52.1895 32.7722C52.1895 32.7657 52.1951 32.7601 52.2034 32.7424C52.223 32.7797 52.2417 32.8104 52.2566 32.8421C52.6285 33.6661 52.9985 34.491 53.3733 35.3141C53.4087 35.3915 53.4022 35.4474 53.3593 35.5192C52.4178 37.0898 51.0439 38.0368 49.2402 38.336C46.6312 38.7695 43.7761 37.3116 42.8496 34.5386C41.9016 31.7003 43.2225 28.9319 45.7177 27.6614C46.3758 27.3258 47.0758 27.1282 47.8094 27.0639C48.1935 27.0303 48.5822 27.0061 48.9681 27.0751C48.9895 27.0788 49.0119 27.0751 49.0547 27.0751C47.5904 24.9461 46.1325 22.8274 44.6654 20.6938C44.2422 21.3174 43.8246 21.9316 43.3912 22.5701C43.5478 22.5701 43.6839 22.5851 43.8162 22.5664C44.0166 22.5394 44.1275 22.6195 44.2329 22.7892C44.5479 23.2944 44.8835 23.7875 45.2116 24.2852C45.233 24.3179 45.2526 24.3524 45.2796 24.398H40.1334C40.167 24.3468 40.1921 24.3076 40.2182 24.2685C41.3433 22.6242 42.4674 20.979 43.5944 19.3366C43.6456 19.263 43.6438 19.2164 43.5944 19.1437C42.501 17.5497 41.4104 15.9549 40.3189 14.3591C40.2145 14.2062 40.1101 14.0524 39.9871 13.8734C40.0495 13.8734 40.084 13.8734 40.1185 13.8734C40.7039 13.8734 41.2883 13.8753 41.8737 13.8716C41.9557 13.8716 41.9995 13.9005 42.0443 13.9657C42.8916 15.2045 43.7407 16.4424 44.5899 17.6793C44.6122 17.7129 44.6365 17.7445 44.6654 17.7846C45.1342 17.0921 45.5966 16.4097 46.0729 15.706C45.7867 15.706 45.5276 15.7013 45.2685 15.7088C45.1659 15.7116 45.1091 15.6771 45.055 15.5913C44.7157 15.0572 44.3699 14.5269 44.0269 13.9946C44.0054 13.9611 43.984 13.9275 43.9542 13.88H49.3046C49.2775 13.9228 49.2561 13.9592 49.2328 13.9937C48.0602 15.7097 46.8885 17.4258 45.7131 19.139C45.659 19.2173 45.6637 19.2667 45.7159 19.3413C46.3078 20.1904 46.8987 21.0405 47.4841 21.8953C48.5635 23.4715 49.6336 25.0542 50.7232 26.623C50.9013 26.8784 50.9814 27.1226 50.974 27.4312C50.9553 28.1834 50.9675 28.9365 50.9675 29.6888V29.8155L50.9693 29.8174Z" fill="white"/>
<path d="M26.8759 8.14551C28.9666 12.6411 31.0536 17.1293 33.1406 21.6165C33.1509 21.6137 33.1621 21.6119 33.1723 21.6091V13.8799H35.0217V29.7474L34.9844 29.7614C32.8983 25.29 30.8122 20.8186 28.7261 16.3472C28.7196 16.3472 28.7131 16.3472 28.7065 16.3472V24.3961H26.8759V8.14551Z" fill="white"/>
<path d="M53.8225 33.048C54.3846 33.048 54.928 33.0452 55.4724 33.048C55.8751 33.0508 56.2544 32.9576 56.6161 32.7852C57.3152 32.4515 57.6666 31.8185 57.6219 31.0467C57.592 30.5322 57.386 30.1062 57.03 29.7604C56.7084 29.4482 56.3085 29.2636 55.8592 29.2039C55.7269 29.1862 55.5917 29.1797 55.4584 29.1797C54.3706 29.1778 53.2819 29.1769 52.1941 29.1806C52.0916 29.1806 52.0357 29.1545 51.9919 29.0576C51.7337 28.4806 51.4699 27.9055 51.207 27.3304C51.2014 27.3173 51.1977 27.3033 51.1912 27.2828C51.2229 27.281 51.2471 27.2782 51.2723 27.2782C52.7254 27.2782 54.1805 27.239 55.6318 27.2894C57.2061 27.3444 58.3946 28.0938 59.13 29.5041C59.5756 30.3588 59.6781 31.263 59.3994 32.1905C59.007 33.4936 58.1159 34.311 56.8473 34.7463C56.8091 34.7594 56.7699 34.7715 56.7308 34.7846C56.728 34.7855 56.7252 34.7892 56.7177 34.7957C56.8454 35.081 56.974 35.3671 57.1027 35.6542C57.6191 36.8045 58.1364 37.9547 58.6519 39.1049C58.6677 39.1404 58.6733 39.1842 58.6733 39.2242C58.6742 40.7259 58.6733 42.2275 58.6733 43.7283C58.6733 43.7394 58.6714 43.7506 58.6528 43.7693C57.0449 40.2002 55.4379 36.6311 53.8225 33.0452V33.048Z" fill="white"/>
<path d="M29.0207 38.1188C29.208 37.814 29.415 37.5204 29.6135 37.223C29.7244 37.0571 29.8344 36.8912 29.9444 36.7253C30.0339 36.5901 30.1383 36.317 30.2977 36.2518C30.4347 36.1958 30.6873 36.2462 30.8392 36.2471C31.0387 36.2471 31.2382 36.248 31.4377 36.2462C31.8385 36.2415 32.216 36.166 32.5637 35.9563C33.5489 35.3625 33.4464 33.9103 32.4574 33.3874C32.1284 33.2131 31.8059 33.1795 31.4423 33.1543C31.0406 33.1264 30.6398 33.0453 30.2613 32.9092C29.6815 32.6995 29.181 32.3098 28.8315 31.8018C28.083 30.715 28.1035 29.0716 29.0496 28.0966C30.1327 26.9809 31.9177 27.2605 33.3215 27.2577C33.4632 27.2577 33.6216 27.2214 33.7316 27.3109C33.8025 27.3696 33.8975 27.5924 33.8901 27.6902C33.878 27.8412 33.7064 27.9922 33.6226 28.1125C33.4902 28.3045 33.3634 28.5012 33.2329 28.6941C33.1528 28.8134 33.054 29.0483 32.9197 29.1182C32.7874 29.1863 32.5115 29.135 32.3586 29.135C31.9429 29.135 31.4787 29.0744 31.0713 29.1695C30.3639 29.3345 30.0786 29.9851 30.2912 30.6525C30.5055 31.3283 31.1179 31.3982 31.7285 31.4196C32.9831 31.4625 34.1623 32.005 34.77 33.1487C35.4803 34.4882 35.2528 36.3086 34.0569 37.2911C32.6839 38.418 30.7432 38.1235 29.0934 38.1235C29.0757 38.1235 29.058 38.1216 29.0216 38.1188H29.0207Z" fill="white"/>
<path d="M35.1354 29.1359C35.1354 28.7994 35.1354 28.4834 35.1363 28.1665C35.1363 28.1385 35.1475 28.1068 35.1633 28.0845C35.3367 27.8328 35.5092 27.5811 35.69 27.335C35.7189 27.295 35.786 27.2605 35.8354 27.2605C38.3242 27.2567 40.8139 27.2577 43.3026 27.2577C43.3269 27.2577 43.352 27.2595 43.3921 27.2614C43.3679 27.3006 43.3511 27.3276 43.3334 27.3537C42.9577 27.9046 42.5793 28.4536 42.2064 29.0054C42.1421 29.1005 42.0722 29.1396 41.9529 29.1387C41.2305 29.1322 40.5072 29.135 39.7839 29.135C39.7438 29.135 39.7028 29.135 39.6487 29.135V38.1616H37.7267V29.1359H35.1354Z" fill="white"/>
<path d="M67.5303 31.8262C67.2908 32.2149 67.0251 32.5896 66.7725 32.9699C66.6392 33.1694 66.5227 33.4154 66.3605 33.5916C66.2142 33.751 65.996 33.6979 65.7938 33.6979C64.8421 33.696 63.8904 33.6969 62.9396 33.6969V36.264H68.5333C68.1511 36.8401 67.768 37.418 67.3737 37.9856C67.1808 38.2625 66.8611 38.1693 66.546 38.1693C66.1741 38.1693 65.8012 38.1693 65.4293 38.1693C64.7051 38.1693 63.9808 38.1693 63.2575 38.1693C62.5164 38.1693 61.7586 38.2159 61.0204 38.1646V31.8271H67.5313L67.5303 31.8262Z" fill="white"/>
<path d="M37.0015 13.8782H38.8182V24.4195H37.0015V13.8782Z" fill="white"/>
<path d="M61.0176 27.2625H68.4895C68.4699 27.2951 68.4559 27.323 68.4382 27.3482C68.0486 27.9205 67.658 28.4919 67.2712 29.0661C67.2339 29.1211 67.1966 29.136 67.1351 29.136C65.1273 29.1351 63.1195 29.1351 61.1117 29.1351C61.0828 29.1351 61.0539 29.1323 61.0176 29.1295V27.2625Z" fill="white"/>
<path d="M75.0497 27.1965C74.2127 26.902 73.4082 26.2877 72.5759 26.0584C71.448 25.7489 71.0174 26.6596 70.0218 26.8479C69.1326 27.0166 68.7691 26.1991 68.0234 25.9698C67.1062 25.6883 66.0547 26.3492 65.0536 26.1628C63.3087 25.8375 62.5239 24.1056 64.7209 23.8325C65.406 23.7477 66.1256 23.9071 66.5702 23.3021C66.93 22.8137 66.6643 22.1248 67.3672 21.8527C68.0821 21.5758 68.8399 22.2162 69.5455 22.2218C70.4665 22.2283 70.5625 21.5171 71.1078 20.9075C72.5479 19.2977 73.7839 20.9681 74.6368 22.1491C75.7134 23.6395 78.0111 21.8461 79.0578 23.3161C80.2882 25.0424 77.2504 25.5411 76.5197 26.4862C76.1589 26.9532 75.6575 27.1359 75.0497 27.1965Z" fill="#C8C8C8"/>
<path d="M61.5164 21.8366C61.9246 21.6809 62.5641 21.6399 62.881 21.3221C63.2277 20.9725 63.1699 20.362 63.4169 19.9509C63.6108 20.3685 63.609 20.9856 63.9483 21.323C64.1049 21.4787 64.3146 21.529 64.5187 21.5943C64.734 21.6632 65.1367 21.7117 65.2989 21.8758C65.0398 21.9569 64.7806 22.0379 64.5224 22.12C64.3183 22.1852 64.0871 22.2337 63.9324 22.3931C63.774 22.5571 63.7301 22.7976 63.6668 23.0083C63.5903 23.259 63.5139 23.5088 63.4253 23.7558C63.4142 23.7558 63.402 23.7558 63.3909 23.7558C63.2604 23.3494 63.1942 22.6979 62.8856 22.3856C62.5715 22.0668 61.9246 22.0165 61.5173 21.8711C61.5173 21.859 61.5173 21.8469 61.5173 21.8347L61.5164 21.8366Z" fill="#641EC8"/>
<path d="M59.654 13.3563C59.8758 13.8345 59.9867 14.3509 60.1396 14.8542C60.2655 15.2681 60.3894 15.7891 60.7166 16.0949C61.0428 16.3988 61.5602 16.5134 61.9722 16.6486C62.2266 16.7325 62.4811 16.8145 62.7356 16.8965C62.8828 16.944 63.2911 17.0037 63.3797 17.1305C62.8763 17.3085 62.3674 17.4623 61.8566 17.618C61.4287 17.7485 60.9664 17.8473 60.6513 18.1884C60.3354 18.5296 60.2468 19.0208 60.1191 19.4524C59.9774 19.9306 59.8702 20.4451 59.626 20.8832C59.4442 20.4013 59.3193 19.9035 59.1786 19.4076C59.0602 18.9882 58.9428 18.5016 58.638 18.1726C58.3127 17.8212 57.7813 17.7186 57.3423 17.5807C57.0804 17.4987 56.8194 17.4166 56.5556 17.3421C56.3338 17.2796 56.0858 17.2461 55.9041 17.0941C56.3897 16.8527 56.9434 16.7343 57.4644 16.5852C57.8867 16.4649 58.3015 16.3605 58.6165 16.0343C58.9325 15.7071 59.0304 15.2756 59.1506 14.8514C59.2932 14.349 59.434 13.8485 59.6074 13.3563C59.6223 13.3563 59.6381 13.3544 59.653 13.3535L59.654 13.3563Z" fill="#641EC8"/>
<path d="M50.9666 20.6454C51.3329 20.4907 51.7225 20.3956 52.1028 20.2809C52.388 20.1952 52.6826 20.1299 52.896 19.9081C53.1086 19.6872 53.1729 19.3721 53.2568 19.0878C53.3658 18.7224 53.473 18.3589 53.5923 17.9972C53.6045 17.9972 53.6175 17.9963 53.6296 17.9954C53.7993 18.3719 53.9027 18.7765 54.0118 19.1754C54.0901 19.4625 54.1824 19.7291 54.4051 19.9379C54.6363 20.1542 54.9253 20.2278 55.2208 20.3154C55.5824 20.4235 55.9478 20.5401 56.3011 20.6733C55.9618 20.7973 55.6188 20.9008 55.2729 21.0061C54.9653 21.0993 54.6214 21.1655 54.3818 21.3957C54.1637 21.6055 54.092 21.8888 54.009 22.1694C53.8925 22.5618 53.7844 22.9533 53.6352 23.3336C53.6212 23.3336 53.6073 23.3318 53.5933 23.3308C53.474 22.9542 53.363 22.5758 53.2512 22.1964C53.1645 21.9019 53.0918 21.5971 52.8588 21.3808C52.6388 21.1758 52.3386 21.1124 52.059 21.0285C51.6936 20.9194 51.3282 20.8122 50.9666 20.692C50.9666 20.6761 50.9675 20.6603 50.9684 20.6445L50.9666 20.6454Z" fill="#641EC8"/>
<path d="M36.336 40.8418C28.056 40.0029 22.0242 32.6103 22.8631 24.3302C23.1978 21.0315 24.5717 18.0897 26.6289 15.7976C20.5403 17.6898 15.861 23.0626 15.1778 29.8055C14.9932 31.626 15.1144 33.4063 15.4984 35.0963C15.5078 35.0851 15.5162 35.0748 15.5255 35.0636C16.012 34.5193 16.5396 34.2434 17.0914 34.2434C18.2622 34.2434 19.1393 35.457 19.7797 36.3434C20.009 36.6604 20.3212 36.7899 20.86 36.7899C21.0902 36.7899 21.3326 36.7675 21.5899 36.7433C21.8555 36.7181 22.1296 36.693 22.4008 36.693C22.9237 36.693 23.6787 36.7778 24.2026 37.5132C24.5288 37.9709 24.6435 38.4183 24.5447 38.8452C24.3611 39.6394 23.4886 40.112 22.7196 40.5287C22.2824 40.7654 21.8294 41.0106 21.6532 41.2389C21.121 41.9278 20.3753 42.0769 19.8608 42.1282C19.8449 42.13 19.83 42.131 19.8142 42.131C19.762 42.131 19.7098 42.1217 19.6594 42.1049C19.3034 41.98 18.9613 41.8057 18.6294 41.6295C21.2841 44.9851 25.24 47.3052 29.8326 47.7703C37.0109 48.4974 43.5777 44.4771 46.4104 38.2552C43.5683 40.2183 40.0403 41.2184 36.3351 40.8428L36.336 40.8418Z" fill="#641EC8"/>
<path d="M19.8159 41.6648C18.9789 41.3702 18.1745 40.756 17.3421 40.5267C16.2142 40.2172 15.7836 41.1279 14.7881 41.3162C13.8988 41.4849 13.5353 40.6674 12.7896 40.4381C11.8724 40.1566 10.821 40.8175 9.81987 40.6311C8.07494 40.3057 7.2901 38.5739 9.48711 38.3008C10.1722 38.2159 10.8918 38.3753 11.3364 37.7704C11.6962 37.2819 11.4306 36.5931 12.1334 36.3209C12.8483 36.0441 13.6062 36.6845 14.3118 36.69C15.2327 36.6966 15.3287 35.9854 15.874 35.3758C17.3141 33.766 18.5501 35.4363 19.403 36.6173C20.4796 38.1078 22.7773 36.3144 23.8241 37.7844C25.0545 39.5106 22.0167 40.0093 21.2859 40.9545C20.9252 41.4215 20.4237 41.6042 19.8159 41.6648Z" fill="#C8C8C8"/>
</svg>
