<svg width="89" height="56" viewBox="0 0 89 56" fill="none" xmlns="http://www.w3.org/2000/svg">
<path d="M51.9565 29.8176C51.6629 29.6237 51.3888 29.4224 51.0962 29.2528C49.7306 28.4623 47.8822 28.7009 46.6071 29.9276C45.1259 31.3528 45.0597 33.7353 46.3675 35.2594C46.9389 35.9258 47.6268 36.3937 48.503 36.5466C49.7157 36.7591 50.8314 36.5429 51.7757 35.7208C52.5978 35.0049 53.075 34.0951 53.1617 32.9952C53.1673 32.9207 53.1711 32.8461 53.1767 32.7725C53.1767 32.7659 53.1822 32.7603 53.1906 32.7426C53.2102 32.7799 53.2288 32.8107 53.2438 32.8424C53.6157 33.6664 53.9857 34.4913 54.3604 35.3143C54.3959 35.3917 54.3893 35.4476 54.3465 35.5194C53.405 37.09 52.0311 38.0371 50.2274 38.3363C47.6184 38.7697 44.7633 37.3119 43.8368 34.5388C42.8888 31.7005 44.2096 28.9321 46.7049 27.6616C47.363 27.3261 48.063 27.1285 48.7966 27.0641C49.1806 27.0306 49.5693 27.0064 49.9552 27.0753C49.9767 27.0791 49.999 27.0753 50.0419 27.0753C48.5776 24.9464 47.1197 22.8276 45.6526 20.694C45.2294 21.3176 44.8118 21.9319 44.3784 22.5704C44.5349 22.5704 44.671 22.5853 44.8034 22.5667C45.0038 22.5396 45.1147 22.6198 45.2201 22.7894C45.5351 23.2946 45.8707 23.7877 46.1988 24.2855C46.2202 24.3181 46.2398 24.3526 46.2668 24.3983H41.1206C41.1541 24.347 41.1793 24.3079 41.2054 24.2687C42.3305 22.6244 43.4546 20.9793 44.5816 19.3369C44.6328 19.2632 44.631 19.2166 44.5816 19.1439C43.4882 17.55 42.3976 15.9551 41.3061 14.3593C41.2017 14.2065 41.0973 14.0527 40.9742 13.8737C41.0367 13.8737 41.0712 13.8737 41.1057 13.8737C41.691 13.8737 42.2755 13.8756 42.8609 13.8718C42.9429 13.8718 42.9867 13.9007 43.0314 13.966C43.8787 15.2048 44.7279 16.4426 45.5771 17.6795C45.5994 17.7131 45.6237 17.7448 45.6526 17.7849C46.1214 17.0923 46.5838 16.41 47.0601 15.7062C46.7739 15.7062 46.5148 15.7016 46.2556 15.709C46.1531 15.7118 46.0963 15.6773 46.0422 15.5916C45.7029 15.0575 45.3571 14.5271 45.0141 13.9949C44.9926 13.9613 44.9712 13.9278 44.9414 13.8802H50.2917C50.2647 13.9231 50.2433 13.9594 50.22 13.9939C49.0473 15.71 47.8757 17.426 46.7003 19.1392C46.6462 19.2175 46.6509 19.2669 46.7031 19.3415C47.295 20.1907 47.8859 21.0408 48.4713 21.8955C49.5507 23.4717 50.6208 25.0545 51.7104 26.6232C51.8885 26.8786 51.9686 27.1229 51.9612 27.4314C51.9425 28.1836 51.9546 28.9368 51.9546 29.689V29.8158L51.9565 29.8176Z" fill="black"/>
<path d="M27.863 8.14575C29.9538 12.6414 32.0408 17.1295 34.1278 21.6168C34.1381 21.614 34.1493 21.6121 34.1595 21.6093V13.8802H36.0088V29.7477L35.9716 29.7617C33.8855 25.2903 31.7994 20.8189 29.7133 16.3475C29.7068 16.3475 29.7002 16.3475 29.6937 16.3475V24.3964H27.863V8.14575Z" fill="black"/>
<path d="M54.8097 33.0483C55.3718 33.0483 55.9152 33.0455 56.4596 33.0483C56.8623 33.051 57.2416 32.9578 57.6033 32.7854C58.3024 32.4517 58.6538 31.8188 58.6091 31.047C58.5792 30.5325 58.3732 30.1065 58.0172 29.7607C57.6956 29.4484 57.2957 29.2638 56.8464 29.2042C56.714 29.1865 56.5789 29.1799 56.4456 29.1799C55.3578 29.1781 54.2691 29.1772 53.1813 29.1809C53.0788 29.1809 53.0228 29.1548 52.979 29.0578C52.7208 28.4809 52.457 27.9057 52.1942 27.3306C52.1886 27.3176 52.1849 27.3036 52.1783 27.2831C52.21 27.2812 52.2343 27.2784 52.2594 27.2784C53.7126 27.2784 55.1677 27.2393 56.619 27.2896C58.1933 27.3446 59.3818 28.094 60.1172 29.5043C60.5628 30.3591 60.6653 31.2632 60.3866 32.1907C59.9942 33.4938 59.1031 34.3113 57.8345 34.7466C57.7962 34.7596 57.7571 34.7717 57.7179 34.7848C57.7151 34.7857 57.7123 34.7895 57.7049 34.796C57.8326 35.0812 57.9612 35.3674 58.0899 35.6545C58.6063 36.8047 59.1236 37.9549 59.639 39.1052C59.6549 39.1406 59.6605 39.1844 59.6605 39.2245C59.6614 40.7261 59.6605 42.2278 59.6605 43.7285C59.6605 43.7397 59.6586 43.7509 59.64 43.7695C58.0321 40.2004 56.4251 36.6313 54.8097 33.0455V33.0483Z" fill="black"/>
<path d="M30.0079 38.1191C30.1952 37.8142 30.4021 37.5206 30.6007 37.2233C30.7116 37.0574 30.8216 36.8914 30.9316 36.7255C31.0211 36.5904 31.1255 36.3173 31.2849 36.252C31.4219 36.1961 31.6745 36.2464 31.8264 36.2473C32.0259 36.2473 32.2254 36.2483 32.4248 36.2464C32.8257 36.2418 33.2032 36.1663 33.5509 35.9565C34.5361 35.3628 34.4336 33.9105 33.4446 33.3876C33.1155 33.2133 32.793 33.1797 32.4295 33.1546C32.0278 33.1266 31.627 33.0455 31.2485 32.9094C30.6687 32.6997 30.1682 32.3101 29.8186 31.8021C29.0701 30.7152 29.0906 29.0719 30.0368 28.0969C31.1199 26.9811 32.9049 27.2608 34.3087 27.258C34.4503 27.258 34.6088 27.2216 34.7188 27.3111C34.7896 27.3698 34.8847 27.5926 34.8773 27.6905C34.8651 27.8415 34.6936 27.9925 34.6097 28.1127C34.4774 28.3047 34.3506 28.5014 34.2201 28.6944C34.14 28.8137 34.0411 29.0486 33.9069 29.1185C33.7746 29.1865 33.4987 29.1353 33.3458 29.1353C32.9301 29.1353 32.4659 29.0747 32.0585 29.1698C31.351 29.3347 31.0658 29.9854 31.2783 30.6528C31.4927 31.3285 32.1051 31.3985 32.7157 31.4199C33.9703 31.4628 35.1494 32.0053 35.7572 33.149C36.4675 34.4884 36.24 36.3089 35.0441 37.2913C33.6711 38.4183 31.7304 38.1237 30.0806 38.1237C30.0629 38.1237 30.0451 38.1218 30.0088 38.1191H30.0079Z" fill="black"/>
<path d="M36.1226 29.1361C36.1226 28.7996 36.1226 28.4837 36.1235 28.1667C36.1235 28.1388 36.1347 28.1071 36.1505 28.0847C36.3239 27.833 36.4963 27.5814 36.6772 27.3353C36.7061 27.2952 36.7732 27.2607 36.8226 27.2607C39.3113 27.257 41.801 27.2579 44.2898 27.2579C44.314 27.2579 44.3392 27.2598 44.3793 27.2616C44.3551 27.3008 44.3383 27.3278 44.3206 27.3539C43.9449 27.9048 43.5665 28.4538 43.1936 29.0056C43.1293 29.1007 43.0594 29.1399 42.9401 29.1389C42.2177 29.1324 41.4944 29.1352 40.771 29.1352C40.731 29.1352 40.69 29.1352 40.6359 29.1352V38.1619H38.7139V29.1361H36.1226Z" fill="black"/>
<path d="M68.5175 31.8264C68.2779 32.2151 68.0123 32.5898 67.7597 32.9701C67.6264 33.1696 67.5099 33.4157 67.3477 33.5919C67.2013 33.7512 66.9832 33.6981 66.781 33.6981C65.8293 33.6963 64.8776 33.6972 63.9268 33.6972V36.2642H69.5205C69.1383 36.8403 68.7552 37.4182 68.3609 37.9859C68.168 38.2627 67.8482 38.1695 67.5332 38.1695C67.1613 38.1695 66.7884 38.1695 66.4165 38.1695C65.6922 38.1695 64.968 38.1695 64.2447 38.1695C63.5036 38.1695 62.7458 38.2161 62.0076 38.1648V31.8273H68.5184L68.5175 31.8264Z" fill="black"/>
<path d="M37.9886 13.8784H39.8054V24.4198H37.9886V13.8784Z" fill="black"/>
<path d="M62.0048 27.2627H69.4767C69.4571 27.2953 69.4431 27.3233 69.4254 27.3484C69.0358 27.9208 68.6452 28.4922 68.2584 29.0663C68.2211 29.1213 68.1838 29.1363 68.1223 29.1363C66.1145 29.1353 64.1067 29.1353 62.0989 29.1353C62.07 29.1353 62.0411 29.1325 62.0048 29.1297V27.2627Z" fill="black"/>
<path d="M76.0369 27.1965C75.1999 26.902 74.3954 26.2877 73.563 26.0584C72.4352 25.7489 72.0045 26.6596 71.009 26.8479C70.1198 27.0166 69.7563 26.1991 69.0106 25.9698C68.0934 25.6883 67.0419 26.3492 66.0408 26.1628C64.2959 25.8375 63.511 24.1056 65.7081 23.8325C66.3932 23.7477 67.1128 23.9071 67.5574 23.3021C67.9172 22.8137 67.6515 22.1248 68.3543 21.8527C69.0693 21.5758 69.8271 22.2162 70.5327 22.2218C71.4536 22.2283 71.5497 21.5171 72.0949 20.9075C73.5351 19.2977 74.7711 20.9681 75.624 22.1491C76.7006 23.6395 78.9982 21.8461 80.045 23.3161C81.2754 25.0424 78.2376 25.5411 77.5068 26.4862C77.1461 26.9532 76.6446 27.1359 76.0369 27.1965Z" fill="black"/>
<path d="M62.5035 21.8369C62.9118 21.6812 63.5512 21.6402 63.8682 21.3223C64.2149 20.9728 64.1571 20.3622 64.4041 19.9512C64.598 20.3688 64.5961 20.9858 64.9354 21.3233C65.092 21.4789 65.3018 21.5293 65.5059 21.5945C65.7212 21.6635 66.1239 21.712 66.2861 21.876C66.027 21.9571 65.7678 22.0382 65.5096 22.1202C65.3055 22.1855 65.0743 22.2339 64.9196 22.3933C64.7611 22.5574 64.7173 22.7979 64.6539 23.0085C64.5775 23.2593 64.5011 23.5091 64.4125 23.7561C64.4013 23.7561 64.3892 23.7561 64.378 23.7561C64.2475 23.3497 64.1814 22.6981 63.8728 22.3859C63.5587 22.0671 62.9118 22.0168 62.5045 21.8713C62.5045 21.8592 62.5045 21.8471 62.5045 21.835L62.5035 21.8369Z" fill="black"/>
<path d="M60.6412 13.3563C60.863 13.8345 60.9739 14.3509 61.1268 14.8542C61.2526 15.2681 61.3766 15.7891 61.7038 16.0949C62.03 16.3988 62.5473 16.5134 62.9593 16.6486C63.2138 16.7325 63.4683 16.8145 63.7228 16.8965C63.87 16.944 64.2783 17.0037 64.3669 17.1305C63.8635 17.3085 63.3546 17.4623 62.8438 17.618C62.4159 17.7485 61.9536 17.8473 61.6385 18.1884C61.3225 18.5296 61.234 19.0208 61.1063 19.4524C60.9646 19.9306 60.8574 20.4451 60.6132 20.8832C60.4314 20.4013 60.3065 19.9035 60.1658 19.4076C60.0474 18.9882 59.93 18.5016 59.6251 18.1726C59.2998 17.8212 58.7685 17.7186 58.3295 17.5807C58.0676 17.4987 57.8066 17.4166 57.5428 17.3421C57.3209 17.2796 57.073 17.2461 56.8912 17.0941C57.3769 16.8527 57.9305 16.7343 58.4516 16.5852C58.8739 16.4649 59.2886 16.3605 59.6037 16.0343C59.9197 15.7071 60.0176 15.2756 60.1378 14.8514C60.2804 14.349 60.4212 13.8485 60.5946 13.3563C60.6095 13.3563 60.6253 13.3544 60.6402 13.3535L60.6412 13.3563Z" fill="black"/>
<path d="M51.9537 20.6454C52.3201 20.4907 52.7097 20.3956 53.09 20.2809C53.3752 20.1952 53.6698 20.1299 53.8832 19.9081C54.0957 19.6872 54.1601 19.3721 54.244 19.0878C54.353 18.7224 54.4602 18.3589 54.5795 17.9972C54.5916 17.9972 54.6047 17.9963 54.6168 17.9954C54.7864 18.3719 54.8899 18.7765 54.999 19.1754C55.0773 19.4625 55.1696 19.7291 55.3923 19.9379C55.6235 20.1542 55.9125 20.2278 56.2079 20.3154C56.5696 20.4235 56.935 20.5401 57.2883 20.6733C56.949 20.7973 56.6059 20.9008 56.2601 21.0061C55.9525 21.0993 55.6086 21.1655 55.369 21.3957C55.1509 21.6055 55.0791 21.8888 54.9962 22.1694C54.8797 22.5618 54.7715 22.9533 54.6224 23.3336C54.6084 23.3336 54.5944 23.3318 54.5805 23.3308C54.4611 22.9542 54.3502 22.5758 54.2384 22.1964C54.1517 21.9019 54.079 21.5971 53.8459 21.3808C53.626 21.1758 53.3258 21.1124 53.0462 21.0285C52.6808 20.9194 52.3154 20.8122 51.9537 20.692C51.9537 20.6761 51.9547 20.6603 51.9556 20.6445L51.9537 20.6454Z" fill="black"/>
<path d="M37.3232 40.8418C29.0432 40.0029 23.0114 32.6103 23.8503 24.3302C24.1849 21.0315 25.5589 18.0897 27.6161 15.7976C21.5275 17.6898 16.8482 23.0626 16.165 29.8055C15.9804 31.626 16.1016 33.4063 16.4856 35.0963C16.4949 35.0851 16.5033 35.0748 16.5127 35.0636C16.9992 34.5193 17.5268 34.2434 18.0786 34.2434C19.2494 34.2434 20.1265 35.457 20.7669 36.3434C20.9962 36.6604 21.3084 36.7899 21.8472 36.7899C22.0774 36.7899 22.3198 36.7675 22.577 36.7433C22.8427 36.7181 23.1167 36.693 23.388 36.693C23.9109 36.693 24.6659 36.7778 25.1898 37.5132C25.516 37.9709 25.6307 38.4183 25.5319 38.8452C25.3482 39.6394 24.4758 40.112 23.7068 40.5287C23.2696 40.7654 22.8166 41.0106 22.6404 41.2389C22.1082 41.9278 21.3625 42.0769 20.848 42.1282C20.8321 42.13 20.8172 42.131 20.8013 42.131C20.7492 42.131 20.697 42.1217 20.6466 42.1049C20.2905 41.98 19.9485 41.8057 19.6166 41.6295C22.2713 44.9851 26.2272 47.3052 30.8198 47.7703C37.9981 48.4974 44.5649 44.4771 47.3976 38.2552C44.5555 40.2183 41.0275 41.2184 37.3223 40.8428L37.3232 40.8418Z" fill="black"/>
<path d="M20.8031 41.6648C19.9661 41.3702 19.1617 40.756 18.3293 40.5267C17.2014 40.2172 16.7708 41.1279 15.7753 41.3162C14.886 41.4849 14.5225 40.6674 13.7768 40.4381C12.8596 40.1566 11.8082 40.8175 10.8071 40.6311C9.06213 40.3057 8.27728 38.5739 10.4743 38.3008C11.1594 38.2159 11.879 38.3753 12.3236 37.7704C12.6834 37.2819 12.4178 36.5931 13.1206 36.3209C13.8355 36.0441 14.5933 36.6845 15.299 36.69C16.2199 36.6966 16.3159 35.9854 16.8612 35.3758C18.3013 33.766 19.5373 35.4363 20.3902 36.6173C21.4668 38.1078 23.7645 36.3144 24.8113 37.7844C26.0417 39.5106 23.0039 40.0093 22.2731 40.9545C21.9124 41.4215 21.4109 41.6042 20.8031 41.6648Z" fill="black"/>
</svg>
