<svg width="414" height="57" viewBox="0 0 414 57" fill="none" xmlns="http://www.w3.org/2000/svg">
<path d="M41.4936 41.0666C30.4522 39.9479 22.4088 30.0898 23.5275 19.0483C23.9737 14.6494 25.8059 10.7265 28.5491 7.67004C20.43 10.1933 14.1902 17.3579 13.2791 26.3496C13.033 28.7772 13.1945 31.1513 13.7067 33.4048C13.7191 33.3899 13.7303 33.3762 13.7427 33.3613C14.3915 32.6354 15.0951 32.2675 15.8309 32.2675C17.3921 32.2675 18.5618 33.8859 19.4157 35.0679C19.7215 35.4906 20.1379 35.6633 20.8563 35.6633C21.1633 35.6633 21.4865 35.6335 21.8296 35.6012C22.1838 35.5676 22.5493 35.5341 22.911 35.5341C23.6083 35.5341 24.6151 35.6472 25.3137 36.6279C25.7487 37.2382 25.9016 37.8348 25.7698 38.4041C25.525 39.4631 24.3615 40.0933 23.3361 40.649C22.7531 40.9647 22.149 41.2916 21.9141 41.5961C21.2043 42.5147 20.21 42.7136 19.5238 42.7819C19.5027 42.7844 19.4828 42.7856 19.4617 42.7856C19.3921 42.7856 19.3225 42.7732 19.2553 42.7508C18.7805 42.5843 18.3243 42.3518 17.8818 42.1169C21.4219 46.5917 26.6971 49.6855 32.8213 50.3057C42.3935 51.2752 51.1504 45.9142 54.9278 37.6173C51.1379 40.235 46.4332 41.5688 41.4924 41.0678L41.4936 41.0666Z" fill="white"/>
<path d="M19.4639 42.1641C18.3477 41.7713 17.275 40.9522 16.165 40.6464C14.661 40.2337 14.0868 41.4481 12.7593 41.6992C11.5734 41.9242 11.0887 40.8341 10.0943 40.5283C8.8712 40.1529 7.46911 41.0342 6.13414 40.7856C3.80727 40.3518 2.76067 38.0424 5.69039 37.6782C6.60399 37.565 7.56357 37.7776 8.15648 36.9709C8.63627 36.3196 8.28202 35.401 9.21923 35.0381C10.1726 34.6689 11.1831 35.5228 12.1241 35.5303C13.3522 35.539 13.4802 34.5906 14.2073 33.7777C16.1277 31.631 17.7759 33.8585 18.9133 35.4333C20.3489 37.4209 23.4129 35.0294 24.8088 36.9895C26.4495 39.2916 22.3986 39.9566 21.4241 41.2169C20.9431 41.8397 20.2743 42.0833 19.4639 42.1641Z" fill="white"/>
<path d="M45.7476 30.8684C44.8454 30.4412 44.0169 29.6601 43.1123 29.3064C41.8864 28.8286 41.2983 29.7974 40.1624 29.892C39.1478 29.9771 38.8363 29.02 38.0287 28.6764C37.0352 28.2545 35.7817 28.8714 34.6833 28.546C32.7687 27.9785 32.0925 25.9492 34.5827 25.8998C35.3591 25.8848 36.1457 26.147 36.7138 25.522C37.1733 25.0174 36.9564 24.2157 37.7746 23.9931C38.6068 23.7667 39.3801 24.5716 40.1689 24.6601C41.1987 24.7748 41.389 23.9902 42.0702 23.3717C43.8694 21.7384 45.0576 23.7516 45.8742 25.1725C46.905 26.9658 49.6851 25.227 50.6849 26.9939C51.8604 29.0689 48.4031 29.2727 47.4752 30.245C47.0171 30.7255 46.4347 30.8715 45.7476 30.8684Z" fill="white"/>
<path d="M37.8631 19.2506C38.3381 19.124 39.0583 19.1527 39.45 18.834C39.8788 18.4833 39.8853 17.7934 40.2096 17.3623C40.3779 17.8522 40.3038 18.5424 40.6441 18.9595C40.8012 19.152 41.03 19.2327 41.2508 19.3295C41.4837 19.4318 41.9286 19.533 42.0909 19.7355C41.7915 19.796 41.4921 19.8565 41.1937 19.9182C40.9577 19.9674 40.6933 19.9947 40.5016 20.155C40.3052 20.3201 40.2281 20.5841 40.1326 20.8124C40.0179 21.084 39.9032 21.3546 39.7753 21.6207C39.7628 21.6194 39.7492 21.618 39.7367 21.6167C39.6381 21.1467 39.64 20.41 39.3312 20.0246C39.0169 19.6313 38.299 19.4995 37.8601 19.2893C37.8615 19.2757 37.863 19.2622 37.8644 19.2486L37.8631 19.2506Z" fill="white"/>
<path d="M36.7688 9.54428C36.9613 10.1052 37.0252 10.6959 37.1375 11.277C37.2301 11.7547 37.308 12.3522 37.6385 12.7325C37.9681 13.1105 38.5335 13.2991 38.9788 13.4984C39.2537 13.622 39.5289 13.7434 39.8041 13.8649C39.9633 13.9352 40.4132 14.0496 40.4975 14.2018C39.9135 14.3423 39.3261 14.455 38.7364 14.5696C38.2425 14.6658 37.7136 14.7224 37.3213 15.0674C36.928 15.4123 36.7716 15.9516 36.5784 16.4196C36.3641 16.9381 36.1841 17.5013 35.8598 17.9631C35.7126 17.4027 35.6309 16.8311 35.5312 16.2599C35.4477 15.7767 35.373 15.2186 35.0703 14.8149C34.7473 14.3837 34.1648 14.207 33.6896 14.0015C33.4061 13.8792 33.1236 13.7569 32.8372 13.6427C32.5962 13.547 32.3227 13.4805 32.137 13.2893C32.7086 13.0758 33.3419 13.0079 33.9423 12.9018C34.4288 12.8165 34.9051 12.7481 35.2957 12.4198C35.6874 12.0905 35.8473 11.6191 36.0313 11.1585C36.2494 10.613 36.4653 10.0693 36.7167 9.53884C36.7334 9.54058 36.7513 9.54034 36.7681 9.54104L36.7688 9.54428Z" fill="white"/>
<path d="M26.1978 16.6871C26.6257 16.5567 27.0728 16.4957 27.5117 16.4118C27.8408 16.3491 28.178 16.3104 28.4427 16.0871C28.7063 15.8647 28.815 15.5197 28.942 15.2113C29.1067 14.8152 29.269 14.4209 29.4447 14.0302C29.4582 14.0316 29.473 14.0321 29.4866 14.0324C29.6325 14.4736 29.7011 14.9383 29.7766 15.3974C29.8308 15.7278 29.9029 16.0368 30.1279 16.2965C30.3613 16.5654 30.676 16.6815 30.9964 16.814C31.3885 16.9771 31.7838 17.1501 32.1635 17.3405C31.7694 17.4396 31.3735 17.5154 30.9743 17.5929C30.6192 17.6613 30.2267 17.6953 29.9318 17.925C29.6633 18.1342 29.5499 18.4429 29.4244 18.7471C29.2482 19.1727 29.0816 19.5981 28.8704 20.0062C28.8547 20.0046 28.8393 20.0009 28.8238 19.9982C28.7342 19.5629 28.6542 19.1266 28.5733 18.689C28.5106 18.3493 28.4648 17.9998 28.2293 17.7307C28.0071 17.4755 27.6786 17.3696 27.3755 17.2431C26.9794 17.0785 26.583 16.916 26.1924 16.7392C26.1942 16.7215 26.1971 16.7039 26.2 16.6863L26.1978 16.6871Z" fill="white"/>
<path d="M115.007 14.17L131.177 14.17C131.177 15.206 131.177 16.256 131.177 17.32C131.177 18.356 131.177 19.406 131.177 20.47C131.177 21.506 131.177 22.556 131.177 23.62C131.177 24.656 131.177 25.706 131.177 26.77C131.177 27.806 131.177 28.856 131.177 29.92C131.177 32.552 131.177 35.184 131.177 37.816C131.177 40.42 131.177 43.038 131.177 45.67H111.731L106.439 30.55C106.439 30.522 106.425 30.508 106.397 30.508C106.397 30.508 106.383 30.508 106.355 30.508C106.355 30.508 106.355 30.522 106.355 30.55C106.355 33.014 106.355 35.534 106.355 38.11C106.355 40.686 106.355 43.206 106.355 45.67H90.1847C90.1847 43.57 90.1847 41.47 90.1847 39.37C90.1847 37.27 90.1847 35.17 90.1847 33.07C90.1847 30.97 90.1847 28.87 90.1847 26.77C90.1847 24.67 90.1847 22.57 90.1847 20.47C90.1847 18.37 90.1847 16.27 90.1847 14.17H109.001L114.923 31.6C114.951 31.6 114.965 31.6 114.965 31.6C114.993 31.6 115.007 31.6 115.007 31.6C115.007 31.572 115.007 31.558 115.007 31.558V14.17ZM132.841 45.67C132.841 43.654 132.841 41.638 132.841 39.622C132.841 37.606 132.841 35.59 132.841 33.574C132.841 31.558 132.841 29.542 132.841 27.526C132.841 25.51 132.841 23.494 132.841 21.478C132.841 20.246 132.841 19.028 132.841 17.824C132.841 16.592 132.841 15.374 132.841 14.17H150.271C150.271 16.886 150.271 19.602 150.271 22.318C150.271 25.006 150.271 27.708 150.271 30.424C150.271 32.104 150.271 33.798 150.271 35.506C150.271 37.186 150.271 38.88 150.271 40.588C150.271 42.268 150.271 43.962 150.271 45.67H132.841ZM173.122 29.92C173.122 29.92 173.122 29.934 173.122 29.962C173.122 29.99 173.108 30.018 173.08 30.046C173.08 30.046 173.08 30.06 173.08 30.088L169.552 45.67H151.282C152.01 43.878 152.696 42.1 153.34 40.336C154.012 38.544 154.67 36.752 155.314 34.96C155.986 33.168 156.686 31.39 157.414 29.626C157.414 29.598 157.414 29.584 157.414 29.584C157.414 29.556 157.414 29.542 157.414 29.542C156.322 26.966 155.3 24.404 154.348 21.856C153.396 19.28 152.374 16.718 151.282 14.17H170.182L173.08 29.71C173.08 29.738 173.08 29.766 173.08 29.794C173.108 29.822 173.122 29.864 173.122 29.92ZM171.778 32.146C171.778 32.118 171.778 32.104 171.778 32.104C171.806 32.076 171.82 32.048 171.82 32.02C171.82 31.992 171.82 31.978 171.82 31.978C172.24 29.99 172.646 28.016 173.038 26.056C173.43 24.068 173.822 22.08 174.214 20.092C174.634 18.104 175.04 16.13 175.432 14.17L193.66 14.17C192.624 16.83 191.644 19.504 190.72 22.192C189.796 24.88 188.802 27.554 187.738 30.214C187.738 30.214 187.738 30.228 187.738 30.256C187.738 30.256 187.738 30.27 187.738 30.298C188.158 31.334 188.564 32.37 188.956 33.406C189.376 34.414 189.782 35.436 190.174 36.472C190.566 37.48 190.958 38.502 191.35 39.538C191.742 40.546 192.134 41.568 192.526 42.604C192.946 43.612 193.366 44.634 193.786 45.67H174.802L171.82 32.314C171.82 32.286 171.82 32.272 171.82 32.272C171.82 32.244 171.806 32.216 171.778 32.188C171.778 32.16 171.778 32.146 171.778 32.146ZM225.107 26.686C229.307 26.686 232.821 26.868 235.649 27.232C238.477 27.596 240.731 28.17 242.411 28.954C244.091 29.71 245.295 30.69 246.023 31.894C246.751 33.07 247.115 34.47 247.115 36.094C247.115 37.858 246.541 39.426 245.393 40.798C244.273 42.142 242.691 43.276 240.647 44.2C238.631 45.096 236.279 45.768 233.591 46.216C230.931 46.692 228.061 46.93 224.981 46.93C221.565 46.93 218.457 46.678 215.657 46.174C212.857 45.67 210.477 44.9 208.517 43.864C206.557 42.8 205.087 41.442 204.107 39.79C203.155 38.138 202.777 36.164 202.973 33.868L220.907 32.65C220.683 33.49 220.739 34.19 221.075 34.75C221.439 35.31 221.999 35.73 222.755 36.01C223.511 36.29 224.351 36.43 225.275 36.43C225.835 36.43 226.339 36.388 226.787 36.304C227.263 36.22 227.683 36.094 228.047 35.926C228.411 35.758 228.691 35.548 228.887 35.296C229.083 35.016 229.181 34.708 229.181 34.372C229.181 33.7 228.831 33.266 228.131 33.07C227.459 32.874 226.465 32.776 225.149 32.776C225.093 32.776 225.023 32.776 224.939 32.776C224.883 32.776 224.813 32.776 224.729 32.776C224.673 32.776 224.603 32.776 224.519 32.776C224.435 32.776 224.351 32.776 224.267 32.776C224.211 32.776 224.155 32.776 224.099 32.776C219.955 32.776 216.511 32.566 213.767 32.146C211.023 31.698 208.853 31.082 207.257 30.298C205.661 29.514 204.527 28.59 203.855 27.526C203.183 26.434 202.847 25.216 202.847 23.872C202.847 22.444 203.225 21.156 203.981 20.008C204.737 18.832 205.801 17.81 207.173 16.942C208.573 16.046 210.197 15.304 212.045 14.716C213.921 14.128 215.965 13.68 218.177 13.372C220.417 13.064 222.755 12.91 225.191 12.91C228.635 12.91 231.715 13.218 234.431 13.834C237.175 14.45 239.471 15.332 241.319 16.48C243.195 17.628 244.539 19 245.351 20.596C246.163 22.192 246.359 23.984 245.939 25.972L228.593 26.77C228.901 25.958 228.887 25.3 228.551 24.796C228.215 24.264 227.683 23.886 226.955 23.662C226.255 23.41 225.457 23.284 224.561 23.284C224.001 23.284 223.497 23.34 223.049 23.452C222.601 23.536 222.209 23.676 221.873 23.872C221.565 24.04 221.313 24.25 221.117 24.502C220.949 24.754 220.865 25.02 220.865 25.3C220.865 25.636 220.977 25.916 221.201 26.14C221.425 26.336 221.761 26.476 222.209 26.56C222.685 26.644 223.301 26.686 224.057 26.686C224.113 26.686 224.169 26.686 224.225 26.686C224.309 26.686 224.379 26.686 224.435 26.686C224.519 26.686 224.589 26.686 224.645 26.686C224.729 26.686 224.799 26.686 224.855 26.686C224.939 26.686 225.023 26.686 225.107 26.686ZM285.192 14.17V26.938L275.07 26.938C275.07 26.938 275.056 26.952 275.028 26.98C275.028 26.98 275.014 26.98 274.986 26.98C274.986 26.98 274.986 26.994 274.986 27.022C274.986 28.254 274.986 29.5 274.986 30.76C274.986 31.992 274.986 33.238 274.986 34.498C274.986 35.73 274.986 36.976 274.986 38.236C274.986 39.468 274.986 40.714 274.986 41.974C274.986 43.206 274.986 44.438 274.986 45.67H257.556C257.556 43.598 257.556 41.526 257.556 39.454C257.556 37.382 257.556 35.31 257.556 33.238C257.556 31.166 257.556 29.094 257.556 27.022C257.556 26.994 257.542 26.98 257.514 26.98C257.514 26.952 257.5 26.938 257.472 26.938H247.35V14.17L285.192 14.17ZM309.453 12.91C314.605 12.91 318.889 13.638 322.305 15.094C325.721 16.55 328.283 18.552 329.991 21.1C331.699 23.648 332.553 26.574 332.553 29.878C332.553 31.67 332.287 33.406 331.755 35.086C331.223 36.738 330.383 38.292 329.235 39.748C328.087 41.176 326.603 42.436 324.783 43.528C322.963 44.592 320.779 45.418 318.231 46.006C315.711 46.622 312.785 46.93 309.453 46.93C307.073 46.93 304.889 46.762 302.901 46.426C300.941 46.118 299.163 45.684 297.567 45.124C295.971 44.536 294.557 43.836 293.325 43.024C292.121 42.212 291.071 41.316 290.175 40.336C289.307 39.328 288.579 38.264 287.991 37.144C287.431 36.024 287.011 34.848 286.731 33.616C286.479 32.384 286.353 31.138 286.353 29.878C286.353 28.226 286.563 26.658 286.983 25.174C287.431 23.69 288.075 22.318 288.915 21.058C289.783 19.798 290.847 18.678 292.107 17.698C293.395 16.69 294.893 15.836 296.601 15.136C298.309 14.408 300.227 13.862 302.355 13.498C304.511 13.106 306.877 12.91 309.453 12.91ZM309.495 26.266C308.515 26.266 307.675 26.378 306.975 26.602C306.303 26.798 305.757 27.078 305.337 27.442C304.945 27.778 304.651 28.17 304.455 28.618C304.287 29.038 304.203 29.472 304.203 29.92C304.203 30.508 304.371 31.082 304.707 31.642C305.043 32.202 305.603 32.664 306.387 33.028C307.171 33.392 308.207 33.574 309.495 33.574C310.251 33.574 310.909 33.504 311.469 33.364C312.057 33.224 312.547 33.042 312.939 32.818C313.359 32.566 313.695 32.286 313.947 31.978C314.227 31.642 314.423 31.306 314.535 30.97C314.647 30.606 314.703 30.242 314.703 29.878C314.703 29.458 314.605 29.038 314.409 28.618C314.241 28.198 313.961 27.82 313.569 27.484C313.177 27.12 312.645 26.826 311.973 26.602C311.301 26.378 310.475 26.266 309.495 26.266ZM333.818 14.17H364.184C366.648 14.17 368.692 14.618 370.316 15.514C371.94 16.382 373.158 17.516 373.97 18.916C374.782 20.288 375.188 21.744 375.188 23.284C375.188 24.88 374.74 26.434 373.844 27.946C372.976 29.43 371.646 30.648 369.854 31.6C368.09 32.552 365.878 33.028 363.218 33.028C363.106 33.028 362.826 33.028 362.378 33.028C361.93 33.028 361.468 33.028 360.992 33.028C360.544 33.028 360.25 33.028 360.11 33.028C360.11 33.028 360.11 33.042 360.11 33.07C360.11 33.098 360.11 33.112 360.11 33.112C360.11 33.112 360.11 33.126 360.11 33.154C360.11 33.154 360.11 33.168 360.11 33.196H369.644L376.112 45.67H356.162C355.63 44.242 355.084 42.814 354.524 41.386C353.992 39.958 353.446 38.53 352.886 37.102C352.354 35.674 351.808 34.246 351.248 32.818H356.12C356.68 32.818 357.17 32.734 357.59 32.566C358.038 32.398 358.402 32.174 358.682 31.894C358.962 31.614 359.172 31.306 359.312 30.97C359.452 30.606 359.522 30.242 359.522 29.878C359.522 29.374 359.396 28.898 359.144 28.45C358.892 28.002 358.514 27.638 358.01 27.358C357.506 27.078 356.876 26.938 356.12 26.938H351.332C351.332 26.938 351.318 26.952 351.29 26.98C351.29 26.98 351.276 26.98 351.248 26.98C351.248 26.98 351.248 26.994 351.248 27.022C351.248 28.842 351.248 30.186 351.248 31.054C351.248 31.894 351.248 32.426 351.248 32.65C351.248 32.846 351.248 32.916 351.248 32.86C351.248 32.86 351.248 33.014 351.248 33.322C351.248 33.602 351.248 33.994 351.248 34.498C351.248 35.002 351.248 35.576 351.248 36.22C351.248 37.144 351.248 38.166 351.248 39.286C351.248 40.406 351.248 41.526 351.248 42.646C351.248 43.738 351.248 44.746 351.248 45.67H333.818C333.818 43.878 333.818 42.086 333.818 40.294C333.818 38.474 333.818 36.668 333.818 34.876C333.818 33.084 333.818 31.292 333.818 29.5C333.818 27.68 333.818 25.874 333.818 24.082C333.818 22.43 333.818 20.778 333.818 19.126C333.818 17.474 333.818 15.822 333.818 14.17ZM412.411 24.754L394.141 24.754C394.113 24.754 394.099 24.754 394.099 24.754V27.064C394.099 27.092 394.099 27.12 394.099 27.148C394.127 27.148 394.141 27.148 394.141 27.148L411.781 27.148V33.07L394.141 33.07C394.141 33.07 394.127 33.07 394.099 33.07C394.099 33.07 394.099 33.084 394.099 33.112C394.099 33.112 394.099 33.126 394.099 33.154V35.506C394.127 35.506 394.141 35.506 394.141 35.506L412.663 35.506V45.67H377.089C377.089 44.018 377.089 42.366 377.089 40.714C377.089 39.034 377.089 37.368 377.089 35.716C377.089 34.064 377.089 32.412 377.089 30.76C377.089 29.08 377.089 27.414 377.089 25.762C377.089 24.082 377.089 22.416 377.089 20.764C377.089 19.672 377.089 18.58 377.089 17.488C377.089 16.368 377.089 15.262 377.089 14.17H412.411V24.754Z" fill="white"/>
</svg>
