<svg width="88" height="56" viewBox="0 0 88 56" fill="none" xmlns="http://www.w3.org/2000/svg">
<path d="M51.463 29.8174C51.1694 29.6235 50.8953 29.4222 50.6026 29.2525C49.2371 28.4621 47.3887 28.7007 46.1135 29.9274C44.6324 31.3526 44.5662 33.7351 45.874 35.2591C46.4454 35.9256 47.1333 36.3935 48.0095 36.5464C49.2222 36.7589 50.3379 36.5426 51.2821 35.7205C52.1043 35.0046 52.5815 34.0949 52.6682 32.995C52.6738 32.9204 52.6775 32.8458 52.6831 32.7722C52.6831 32.7657 52.6887 32.7601 52.6971 32.7424C52.7167 32.7797 52.7353 32.8104 52.7502 32.8421C53.1221 33.6661 53.4922 34.491 53.8669 35.3141C53.9023 35.3915 53.8958 35.4474 53.8529 35.5192C52.9115 37.0898 51.5375 38.0368 49.7339 38.336C47.1249 38.7695 44.2698 37.3116 43.3433 34.5386C42.3953 31.7003 43.7161 28.9319 46.2114 27.6614C46.8695 27.3258 47.5695 27.1282 48.3031 27.0639C48.6871 27.0303 49.0758 27.0061 49.4617 27.0751C49.4831 27.0788 49.5055 27.0751 49.5484 27.0751C48.084 24.9461 46.6262 22.8274 45.159 20.6938C44.7358 21.3174 44.3183 21.9316 43.8848 22.5701C44.0414 22.5701 44.1775 22.5851 44.3099 22.5664C44.5103 22.5394 44.6212 22.6195 44.7265 22.7892C45.0416 23.2944 45.3771 23.7875 45.7053 24.2852C45.7267 24.3179 45.7463 24.3524 45.7733 24.398H40.6271C40.6606 24.3468 40.6858 24.3076 40.7119 24.2685C41.837 22.6242 42.9611 20.979 44.088 19.3366C44.1393 19.263 44.1374 19.2164 44.088 19.1437C42.9946 17.5497 41.9041 15.9549 40.8125 14.3591C40.7082 14.2062 40.6038 14.0524 40.4807 13.8734C40.5432 13.8734 40.5777 13.8734 40.6121 13.8734C41.1975 13.8734 41.782 13.8753 42.3673 13.8716C42.4494 13.8716 42.4932 13.9005 42.5379 13.9657C43.3852 15.2045 44.2344 16.4424 45.0835 17.6793C45.1059 17.7129 45.1301 17.7445 45.159 17.7846C45.6279 17.0921 46.0902 16.4097 46.5665 15.706C46.2804 15.706 46.0212 15.7013 45.7621 15.7088C45.6596 15.7116 45.6027 15.6771 45.5487 15.5913C45.2094 15.0572 44.8635 14.5269 44.5205 13.9946C44.4991 13.9611 44.4776 13.9275 44.4478 13.88H49.7982C49.7712 13.9228 49.7497 13.9592 49.7264 13.9937C48.5538 15.7097 47.3821 17.4258 46.2067 19.139C46.1527 19.2173 46.1573 19.2667 46.2095 19.3413C46.8014 20.1904 47.3924 21.0405 47.9778 21.8953C49.0572 23.4715 50.1272 25.0542 51.2169 26.623C51.3949 26.8784 51.4751 27.1226 51.4676 27.4312C51.449 28.1834 51.4611 28.9365 51.4611 29.6888V29.8155L51.463 29.8174Z" fill="black"/>
<path d="M27.3695 8.14551C29.4603 12.6411 31.5473 17.1293 33.6343 21.6165C33.6446 21.6137 33.6557 21.6119 33.666 21.6091V13.8799H35.5153V29.7474L35.478 29.7614C33.3919 25.29 31.3059 20.8186 29.2198 16.3472C29.2132 16.3472 29.2067 16.3472 29.2002 16.3472V24.3961H27.3695V8.14551Z" fill="black"/>
<path d="M54.3162 33.048C54.8783 33.048 55.4217 33.0452 55.966 33.048C56.3687 33.0508 56.7481 32.9576 57.1098 32.7852C57.8089 32.4515 58.1603 31.8185 58.1155 31.0467C58.0857 30.5322 57.8797 30.1062 57.5236 29.7604C57.202 29.4482 56.8022 29.2636 56.3529 29.2039C56.2205 29.1862 56.0854 29.1797 55.9521 29.1797C54.8643 29.1778 53.7756 29.1769 52.6878 29.1806C52.5852 29.1806 52.5293 29.1545 52.4855 29.0576C52.2273 28.4806 51.9635 27.9055 51.7007 27.3304C51.6951 27.3173 51.6913 27.3033 51.6848 27.2828C51.7165 27.281 51.7407 27.2782 51.7659 27.2782C53.2191 27.2782 54.6741 27.239 56.1254 27.2894C57.6998 27.3444 58.8882 28.0938 59.6237 29.5041C60.0692 30.3588 60.1718 31.263 59.8931 32.1905C59.5007 33.4936 58.6095 34.311 57.3409 34.7463C57.3027 34.7594 57.2636 34.7715 57.2244 34.7846C57.2216 34.7855 57.2188 34.7892 57.2114 34.7957C57.3391 35.081 57.4677 35.3671 57.5963 35.6542C58.1127 36.8045 58.63 37.9547 59.1455 39.1049C59.1614 39.1404 59.167 39.1842 59.167 39.2242C59.1679 40.7259 59.167 42.2275 59.167 43.7283C59.167 43.7394 59.1651 43.7506 59.1464 43.7693C57.5385 40.2002 55.9316 36.6311 54.3162 33.0452V33.048Z" fill="black"/>
<path d="M29.5143 38.1188C29.7017 37.814 29.9086 37.5204 30.1072 37.223C30.2181 37.0571 30.3281 36.8912 30.4381 36.7253C30.5275 36.5901 30.6319 36.317 30.7913 36.2518C30.9284 36.1958 31.181 36.2462 31.3329 36.2471C31.5324 36.2471 31.7318 36.248 31.9313 36.2462C32.3321 36.2415 32.7096 36.166 33.0573 35.9563C34.0426 35.3625 33.94 33.9103 32.9511 33.3874C32.622 33.2131 32.2995 33.1795 31.936 33.1543C31.5342 33.1264 31.1334 33.0453 30.755 32.9092C30.1752 32.6995 29.6747 32.3098 29.3251 31.8018C28.5766 30.715 28.5971 29.0716 29.5432 28.0966C30.6263 26.9809 32.4114 27.2605 33.8151 27.2577C33.9568 27.2577 34.1153 27.2214 34.2253 27.3109C34.2961 27.3696 34.3912 27.5924 34.3837 27.6902C34.3716 27.8412 34.2001 27.9922 34.1162 28.1125C33.9838 28.3045 33.8571 28.5012 33.7266 28.6941C33.6464 28.8134 33.5476 29.0483 33.4134 29.1182C33.281 29.1863 33.0051 29.135 32.8523 29.135C32.4365 29.135 31.9723 29.0744 31.565 29.1695C30.8575 29.3345 30.5723 29.9851 30.7848 30.6525C30.9992 31.3283 31.6116 31.3982 32.2221 31.4196C33.4768 31.4625 34.6559 32.005 35.2637 33.1487C35.9739 34.4882 35.7465 36.3086 34.5506 37.2911C33.1776 38.418 31.2369 38.1235 29.587 38.1235C29.5693 38.1235 29.5516 38.1216 29.5153 38.1188H29.5143Z" fill="black"/>
<path d="M35.629 29.1359C35.629 28.7994 35.629 28.4834 35.63 28.1665C35.63 28.1385 35.6411 28.1068 35.657 28.0845C35.8304 27.8328 36.0028 27.5811 36.1836 27.335C36.2125 27.295 36.2797 27.2605 36.3291 27.2605C38.8178 27.2567 41.3075 27.2577 43.7963 27.2577C43.8205 27.2577 43.8457 27.2595 43.8858 27.2614C43.8615 27.3006 43.8447 27.3276 43.827 27.3537C43.4514 27.9046 43.0729 28.4536 42.7001 29.0054C42.6358 29.1005 42.5659 29.1396 42.4466 29.1387C41.7242 29.1322 41.0008 29.135 40.2775 29.135C40.2374 29.135 40.1964 29.135 40.1424 29.135V38.1616H38.2203V29.1359H35.629Z" fill="black"/>
<path d="M68.024 31.8262C67.7844 32.2149 67.5188 32.5896 67.2662 32.9699C67.1329 33.1694 67.0163 33.4154 66.8542 33.5916C66.7078 33.751 66.4897 33.6979 66.2874 33.6979C65.3357 33.696 64.384 33.6969 63.4333 33.6969V36.264H69.0269C68.6448 36.8401 68.2617 37.418 67.8674 37.9856C67.6744 38.2625 67.3547 38.1693 67.0397 38.1693C66.6677 38.1693 66.2949 38.1693 65.923 38.1693C65.1987 38.1693 64.4745 38.1693 63.7511 38.1693C63.0101 38.1693 62.2523 38.2159 61.514 38.1646V31.8271H68.0249L68.024 31.8262Z" fill="black"/>
<path d="M37.4951 13.8782H39.3118V24.4195H37.4951V13.8782Z" fill="black"/>
<path d="M61.5112 27.2625H68.9831C68.9635 27.2951 68.9496 27.323 68.9318 27.3482C68.5422 27.9205 68.1517 28.4919 67.7648 29.0661C67.7276 29.1211 67.6903 29.136 67.6287 29.136C65.621 29.1351 63.6132 29.1351 61.6054 29.1351C61.5765 29.1351 61.5476 29.1323 61.5112 29.1295V27.2625Z" fill="black"/>
<path d="M75.5434 27.1965C74.7063 26.902 73.9019 26.2877 73.0695 26.0584C71.9416 25.7489 71.511 26.6596 70.5155 26.8479C69.6263 27.0166 69.2627 26.1991 68.517 25.9698C67.5998 25.6883 66.5484 26.3492 65.5473 26.1628C63.8024 25.8375 63.0175 24.1056 65.2145 23.8325C65.8996 23.7477 66.6192 23.9071 67.0639 23.3021C67.4237 22.8137 67.158 22.1248 67.8608 21.8527C68.5758 21.5758 69.3336 22.2162 70.0392 22.2218C70.9601 22.2283 71.0561 21.5171 71.6014 20.9075C73.0415 19.2977 74.2775 20.9681 75.1304 22.1491C76.207 23.6395 78.5047 21.8461 79.5515 23.3161C80.7819 25.0424 77.7441 25.5411 77.0133 26.4862C76.6526 26.9532 76.1511 27.1359 75.5434 27.1965Z" fill="#C8C8C8"/>
<path d="M62.01 21.8366C62.4183 21.6809 63.0577 21.6399 63.3746 21.3221C63.7214 20.9725 63.6636 20.362 63.9106 19.9509C64.1045 20.3685 64.1026 20.9856 64.4419 21.323C64.5985 21.4787 64.8082 21.529 65.0124 21.5943C65.2277 21.6632 65.6304 21.7117 65.7926 21.8758C65.5334 21.9569 65.2743 22.0379 65.0161 22.12C64.812 22.1852 64.5808 22.2337 64.4261 22.3931C64.2676 22.5571 64.2238 22.7976 64.1604 23.0083C64.084 23.259 64.0075 23.5088 63.919 23.7558C63.9078 23.7558 63.8957 23.7558 63.8845 23.7558C63.754 23.3494 63.6878 22.6979 63.3793 22.3856C63.0652 22.0668 62.4183 22.0165 62.0109 21.8711C62.0109 21.859 62.0109 21.8469 62.0109 21.8347L62.01 21.8366Z" fill="#641EC8"/>
<path d="M60.1476 13.3563C60.3695 13.8345 60.4804 14.3509 60.6333 14.8542C60.7591 15.2681 60.8831 15.7891 61.2102 16.0949C61.5365 16.3988 62.0538 16.5134 62.4658 16.6486C62.7203 16.7325 62.9748 16.8145 63.2292 16.8965C63.3765 16.944 63.7848 17.0037 63.8733 17.1305C63.37 17.3085 62.861 17.4623 62.3502 17.618C61.9224 17.7485 61.4601 17.8473 61.145 18.1884C60.829 18.5296 60.7405 19.0208 60.6128 19.4524C60.4711 19.9306 60.3639 20.4451 60.1197 20.8832C59.9379 20.4013 59.813 19.9035 59.6722 19.4076C59.5539 18.9882 59.4364 18.5016 59.1316 18.1726C58.8063 17.8212 58.275 17.7186 57.836 17.5807C57.574 17.4987 57.313 17.4166 57.0493 17.3421C56.8274 17.2796 56.5795 17.2461 56.3977 17.0941C56.8833 16.8527 57.437 16.7343 57.9581 16.5852C58.3803 16.4649 58.7951 16.3605 59.1102 16.0343C59.4262 15.7071 59.524 15.2756 59.6443 14.8514C59.7869 14.349 59.9276 13.8485 60.101 13.3563C60.1159 13.3563 60.1318 13.3544 60.1467 13.3535L60.1476 13.3563Z" fill="#641EC8"/>
<path d="M51.4602 20.6454C51.8265 20.4907 52.2162 20.3956 52.5965 20.2809C52.8817 20.1952 53.1762 20.1299 53.3897 19.9081C53.6022 19.6872 53.6665 19.3721 53.7504 19.0878C53.8595 18.7224 53.9667 18.3589 54.086 17.9972C54.0981 17.9972 54.1112 17.9963 54.1233 17.9954C54.2929 18.3719 54.3964 18.7765 54.5054 19.1754C54.5837 19.4625 54.676 19.7291 54.8988 19.9379C55.13 20.1542 55.4189 20.2278 55.7144 20.3154C56.0761 20.4235 56.4415 20.5401 56.7947 20.6733C56.4554 20.7973 56.1124 20.9008 55.7666 21.0061C55.459 21.0993 55.115 21.1655 54.8755 21.3957C54.6574 21.6055 54.5856 21.8888 54.5026 22.1694C54.3861 22.5618 54.278 22.9533 54.1289 23.3336C54.1149 23.3336 54.1009 23.3318 54.0869 23.3308C53.9676 22.9542 53.8567 22.5758 53.7448 22.1964C53.6581 21.9019 53.5854 21.5971 53.3524 21.3808C53.1324 21.1758 52.8323 21.1124 52.5526 21.0285C52.1873 20.9194 51.8219 20.8122 51.4602 20.692C51.4602 20.6761 51.4611 20.6603 51.4621 20.6445L51.4602 20.6454Z" fill="#641EC8"/>
<path d="M36.8297 40.8418C28.5496 40.0029 22.5179 32.6103 23.3568 24.3302C23.6914 21.0315 25.0654 18.0897 27.1226 15.7976C21.0339 17.6898 16.3547 23.0626 15.6714 29.8055C15.4869 31.626 15.6081 33.4063 15.9921 35.0963C16.0014 35.0851 16.0098 35.0748 16.0191 35.0636C16.5057 34.5193 17.0333 34.2434 17.5851 34.2434C18.7558 34.2434 19.633 35.457 20.2733 36.3434C20.5026 36.6604 20.8149 36.7899 21.3537 36.7899C21.5839 36.7899 21.8262 36.7675 22.0835 36.7433C22.3492 36.7181 22.6232 36.693 22.8945 36.693C23.4174 36.693 24.1724 36.7778 24.6962 37.5132C25.0225 37.9709 25.1371 38.4183 25.0383 38.8452C24.8547 39.6394 23.9822 40.112 23.2132 40.5287C22.7761 40.7654 22.3231 41.0106 22.1469 41.2389C21.6147 41.9278 20.869 42.0769 20.3544 42.1282C20.3386 42.13 20.3237 42.131 20.3078 42.131C20.2556 42.131 20.2034 42.1217 20.1531 42.1049C19.797 41.98 19.4549 41.8057 19.1231 41.6295C21.7778 44.9851 25.7337 47.3052 30.3263 47.7703C37.5045 48.4974 44.0713 44.4771 46.904 38.2552C44.062 40.2183 40.5339 41.2184 36.8287 40.8428L36.8297 40.8418Z" fill="#641EC8"/>
<path d="M20.3096 41.6648C19.4726 41.3702 18.6681 40.756 17.8357 40.5267C16.7079 40.2172 16.2772 41.1279 15.2817 41.3162C14.3925 41.4849 14.029 40.6674 13.2833 40.4381C12.3661 40.1566 11.3146 40.8175 10.3135 40.6311C8.5686 40.3057 7.78375 38.5739 9.98076 38.3008C10.6659 38.2159 11.3855 38.3753 11.8301 37.7704C12.1899 37.2819 11.9242 36.5931 12.6271 36.3209C13.342 36.0441 14.0998 36.6845 14.8054 36.69C15.7264 36.6966 15.8224 35.9854 16.3677 35.3758C17.8078 33.766 19.0438 35.4363 19.8967 36.6173C20.9733 38.1078 23.2709 36.3144 24.3177 37.7844C25.5481 39.5106 22.5103 40.0093 21.7796 40.9545C21.4188 41.4215 20.9173 41.6042 20.3096 41.6648Z" fill="#C8C8C8"/>
</svg>
