<svg width="88" height="56" viewBox="0 0 88 56" fill="none" xmlns="http://www.w3.org/2000/svg">
<path d="M51.45 29.8176C51.1564 29.6237 50.8824 29.4224 50.5897 29.2528C49.2241 28.4623 47.3757 28.7009 46.1006 29.9276C44.6194 31.3528 44.5533 33.7353 45.861 35.2594C46.4324 35.9258 47.1203 36.3937 47.9965 36.5466C49.2092 36.7591 50.325 36.5429 51.2692 35.7208C52.0913 35.0049 52.5686 34.0951 52.6553 32.9952C52.6609 32.9207 52.6646 32.8461 52.6702 32.7725C52.6702 32.7659 52.6758 32.7603 52.6842 32.7426C52.7037 32.7799 52.7224 32.8107 52.7373 32.8424C53.1092 33.6664 53.4793 34.4913 53.854 35.3143C53.8894 35.3917 53.8829 35.4476 53.84 35.5194C52.8985 37.09 51.5246 38.0371 49.7209 38.3363C47.1119 38.7697 44.2568 37.3119 43.3303 34.5388C42.3824 31.7005 43.7032 28.9321 46.1985 27.6616C46.8565 27.3261 47.5566 27.1285 48.2901 27.0641C48.6742 27.0306 49.0629 27.0064 49.4488 27.0753C49.4702 27.0791 49.4926 27.0753 49.5355 27.0753C48.0711 24.9464 46.6133 22.8276 45.1461 20.694C44.7229 21.3176 44.3053 21.9319 43.8719 22.5704C44.0285 22.5704 44.1646 22.5853 44.2969 22.5667C44.4973 22.5396 44.6083 22.6198 44.7136 22.7894C45.0286 23.2946 45.3642 23.7877 45.6923 24.2855C45.7138 24.3181 45.7333 24.3526 45.7604 24.3983H40.6141C40.6477 24.347 40.6728 24.3079 40.6989 24.2687C41.824 22.6244 42.9482 20.9793 44.0751 19.3369C44.1264 19.2632 44.1245 19.2166 44.0751 19.1439C42.9817 17.55 41.8911 15.9551 40.7996 14.3593C40.6952 14.2065 40.5908 14.0527 40.4678 13.8737C40.5302 13.8737 40.5647 13.8737 40.5992 13.8737C41.1846 13.8737 41.769 13.8756 42.3544 13.8718C42.4364 13.8718 42.4802 13.9007 42.525 13.966C43.3723 15.2048 44.2214 16.4426 45.0706 17.6795C45.093 17.7131 45.1172 17.7448 45.1461 17.7849C45.6149 17.0923 46.0773 16.41 46.5536 15.7062C46.2674 15.7062 46.0083 15.7016 45.7492 15.709C45.6466 15.7118 45.5898 15.6773 45.5357 15.5916C45.1964 15.0575 44.8506 14.5271 44.5076 13.9949C44.4861 13.9613 44.4647 13.9278 44.4349 13.8802H49.7853C49.7582 13.9231 49.7368 13.9594 49.7135 13.9939C48.5409 15.71 47.3692 17.426 46.1938 19.1392C46.1397 19.2175 46.1444 19.2669 46.1966 19.3415C46.7885 20.1907 47.3795 21.0408 47.9648 21.8955C49.0442 23.4717 50.1143 25.0545 51.2039 26.6232C51.382 26.8786 51.4621 27.1229 51.4547 27.4314C51.436 28.1836 51.4482 28.9368 51.4482 29.689V29.8158L51.45 29.8176Z" fill="white"/>
<path d="M27.3566 8.14575C29.4473 12.6414 31.5343 17.1295 33.6214 21.6168C33.6316 21.614 33.6428 21.6121 33.653 21.6093V13.8802H35.5024V29.7477L35.4651 29.7617C33.379 25.2903 31.2929 20.8189 29.2068 16.3475C29.2003 16.3475 29.1938 16.3475 29.1873 16.3475V24.3964H27.3566V8.14575Z" fill="white"/>
<path d="M54.3033 33.0483C54.8653 33.0483 55.4087 33.0455 55.9531 33.0483C56.3558 33.051 56.7352 32.9578 57.0968 32.7854C57.7959 32.4517 58.1473 31.8188 58.1026 31.047C58.0728 30.5325 57.8668 30.1065 57.5107 29.7607C57.1891 29.4484 56.7892 29.2638 56.3399 29.2042C56.2076 29.1865 56.0724 29.1799 55.9391 29.1799C54.8513 29.1781 53.7626 29.1772 52.6748 29.1809C52.5723 29.1809 52.5164 29.1548 52.4726 29.0578C52.2144 28.4809 51.9506 27.9057 51.6877 27.3306C51.6821 27.3176 51.6784 27.3036 51.6719 27.2831C51.7036 27.2812 51.7278 27.2784 51.753 27.2784C53.2061 27.2784 54.6612 27.2393 56.1125 27.2896C57.6869 27.3446 58.8753 28.094 59.6108 29.5043C60.0563 30.3591 60.1588 31.2632 59.8801 32.1907C59.4877 33.4938 58.5966 34.3113 57.328 34.7466C57.2898 34.7596 57.2506 34.7717 57.2115 34.7848C57.2087 34.7857 57.2059 34.7895 57.1984 34.796C57.3261 35.0812 57.4548 35.3674 57.5834 35.6545C58.0998 36.8047 58.6171 37.9549 59.1326 39.1052C59.1484 39.1406 59.154 39.1844 59.154 39.2245C59.1549 40.7261 59.154 42.2278 59.154 43.7285C59.154 43.7397 59.1521 43.7509 59.1335 43.7695C57.5256 40.2004 55.9186 36.6313 54.3033 33.0455V33.0483Z" fill="white"/>
<path d="M29.5014 38.1191C29.6887 37.8142 29.8957 37.5206 30.0942 37.2233C30.2051 37.0574 30.3151 36.8914 30.4251 36.7255C30.5146 36.5904 30.619 36.3173 30.7784 36.252C30.9154 36.1961 31.168 36.2464 31.32 36.2473C31.5194 36.2473 31.7189 36.2483 31.9184 36.2464C32.3192 36.2418 32.6967 36.1663 33.0444 35.9565C34.0296 35.3628 33.9271 33.9105 32.9381 33.3876C32.6091 33.2133 32.2866 33.1797 31.923 33.1546C31.5213 33.1266 31.1205 33.0455 30.742 32.9094C30.1623 32.6997 29.6617 32.3101 29.3122 31.8021C28.5637 30.7152 28.5842 29.0719 29.5303 28.0969C30.6134 26.9811 32.3984 27.2608 33.8022 27.258C33.9439 27.258 34.1023 27.2216 34.2123 27.3111C34.2832 27.3698 34.3782 27.5926 34.3708 27.6905C34.3587 27.8415 34.1872 27.9925 34.1033 28.1127C33.9709 28.3047 33.8441 28.5014 33.7136 28.6944C33.6335 28.8137 33.5347 29.0486 33.4005 29.1185C33.2681 29.1865 32.9922 29.1353 32.8393 29.1353C32.4236 29.1353 31.9594 29.0747 31.5521 29.1698C30.8446 29.3347 30.5593 29.9854 30.7719 30.6528C30.9863 31.3285 31.5987 31.3985 32.2092 31.4199C33.4638 31.4628 34.643 32.0053 35.2507 33.149C35.961 34.4884 35.7336 36.3089 34.5376 37.2913C33.1646 38.4183 31.2239 38.1237 29.5741 38.1237C29.5564 38.1237 29.5387 38.1218 29.5023 38.1191H29.5014Z" fill="white"/>
<path d="M35.6161 29.1361C35.6161 28.7996 35.6161 28.4837 35.617 28.1667C35.617 28.1388 35.6282 28.1071 35.6441 28.0847C35.8174 27.833 35.9899 27.5814 36.1707 27.3353C36.1996 27.2952 36.2667 27.2607 36.3161 27.2607C38.8049 27.257 41.2946 27.2579 43.7833 27.2579C43.8076 27.2579 43.8327 27.2598 43.8728 27.2616C43.8486 27.3008 43.8318 27.3278 43.8141 27.3539C43.4385 27.9048 43.06 28.4538 42.6872 29.0056C42.6228 29.1007 42.5529 29.1399 42.4336 29.1389C41.7112 29.1324 40.9879 29.1352 40.2646 29.1352C40.2245 29.1352 40.1835 29.1352 40.1294 29.1352V38.1619H38.2074V29.1361H35.6161Z" fill="white"/>
<path d="M68.011 31.8264C67.7715 32.2151 67.5058 32.5898 67.2532 32.9701C67.1199 33.1696 67.0034 33.4157 66.8412 33.5919C66.6949 33.7512 66.4768 33.6981 66.2745 33.6981C65.3228 33.6963 64.3711 33.6972 63.4203 33.6972V36.2642H69.014C68.6318 36.8403 68.2487 37.4182 67.8544 37.9859C67.6615 38.2627 67.3418 38.1695 67.0267 38.1695C66.6548 38.1695 66.2819 38.1695 65.91 38.1695C65.1858 38.1695 64.4615 38.1695 63.7382 38.1695C62.9972 38.1695 62.2393 38.2161 61.5011 38.1648V31.8273H68.012L68.011 31.8264Z" fill="white"/>
<path d="M37.4822 13.8784H39.2989V24.4198H37.4822V13.8784Z" fill="white"/>
<path d="M61.4983 27.2627H68.9702C68.9506 27.2953 68.9366 27.3233 68.9189 27.3484C68.5293 27.9208 68.1387 28.4922 67.7519 29.0663C67.7146 29.1213 67.6773 29.1363 67.6158 29.1363C65.608 29.1353 63.6002 29.1353 61.5924 29.1353C61.5635 29.1353 61.5346 29.1325 61.4983 29.1297V27.2627Z" fill="white"/>
<path d="M75.5304 27.1965C74.6934 26.902 73.889 26.2877 73.0566 26.0584C71.9287 25.7489 71.4981 26.6596 70.5026 26.8479C69.6133 27.0166 69.2498 26.1991 68.5041 25.9698C67.5869 25.6883 66.5354 26.3492 65.5343 26.1628C63.7894 25.8375 63.0046 24.1056 65.2016 23.8325C65.8867 23.7477 66.6063 23.9071 67.0509 23.3021C67.4107 22.8137 67.1451 22.1248 67.8479 21.8527C68.5628 21.5758 69.3206 22.2162 70.0262 22.2218C70.9472 22.2283 71.0432 21.5171 71.5885 20.9075C73.0286 19.2977 74.2646 20.9681 75.1175 22.1491C76.1941 23.6395 78.4918 21.8461 79.5385 23.3161C80.7689 25.0424 77.7312 25.5411 77.0004 26.4862C76.6396 26.9532 76.1382 27.1359 75.5304 27.1965Z" fill="white"/>
<path d="M61.9971 21.8369C62.4053 21.6812 63.0448 21.6402 63.3617 21.3223C63.7084 20.9728 63.6506 20.3622 63.8977 19.9512C64.0915 20.3688 64.0897 20.9858 64.429 21.3233C64.5856 21.4789 64.7953 21.5293 64.9994 21.5945C65.2148 21.6635 65.6174 21.712 65.7796 21.876C65.5205 21.9571 65.2614 22.0382 65.0032 22.1202C64.799 22.1855 64.5679 22.2339 64.4131 22.3933C64.2547 22.5574 64.2109 22.7979 64.1475 23.0085C64.071 23.2593 63.9946 23.5091 63.9061 23.7561C63.8949 23.7561 63.8828 23.7561 63.8716 23.7561C63.7411 23.3497 63.6749 22.6981 63.3664 22.3859C63.0522 22.0671 62.4053 22.0168 61.998 21.8713C61.998 21.8592 61.998 21.8471 61.998 21.835L61.9971 21.8369Z" fill="white"/>
<path d="M60.1347 13.3563C60.3565 13.8345 60.4675 14.3509 60.6203 14.8542C60.7462 15.2681 60.8701 15.7891 61.1973 16.0949C61.5236 16.3988 62.0409 16.5134 62.4529 16.6486C62.7073 16.7325 62.9618 16.8145 63.2163 16.8965C63.3636 16.944 63.7718 17.0037 63.8604 17.1305C63.357 17.3085 62.8481 17.4623 62.3373 17.618C61.9094 17.7485 61.4471 17.8473 61.1321 18.1884C60.8161 18.5296 60.7275 19.0208 60.5998 19.4524C60.4581 19.9306 60.3509 20.4451 60.1067 20.8832C59.925 20.4013 59.8001 19.9035 59.6593 19.4076C59.5409 18.9882 59.4235 18.5016 59.1187 18.1726C58.7934 17.8212 58.2621 17.7186 57.823 17.5807C57.5611 17.4987 57.3001 17.4166 57.0363 17.3421C56.8145 17.2796 56.5665 17.2461 56.3848 17.0941C56.8704 16.8527 57.4241 16.7343 57.9451 16.5852C58.3674 16.4649 58.7822 16.3605 59.0972 16.0343C59.4132 15.7071 59.5111 15.2756 59.6313 14.8514C59.774 14.349 59.9147 13.8485 60.0881 13.3563C60.103 13.3563 60.1188 13.3544 60.1338 13.3535L60.1347 13.3563Z" fill="white"/>
<path d="M51.4473 20.6454C51.8136 20.4907 52.2032 20.3956 52.5835 20.2809C52.8687 20.1952 53.1633 20.1299 53.3768 19.9081C53.5893 19.6872 53.6536 19.3721 53.7375 19.0878C53.8465 18.7224 53.9537 18.3589 54.0731 17.9972C54.0852 17.9972 54.0982 17.9963 54.1103 17.9954C54.28 18.3719 54.3834 18.7765 54.4925 19.1754C54.5708 19.4625 54.6631 19.7291 54.8859 19.9379C55.117 20.1542 55.406 20.2278 55.7015 20.3154C56.0631 20.4235 56.4285 20.5401 56.7818 20.6733C56.4425 20.7973 56.0995 20.9008 55.7537 21.0061C55.4461 21.0993 55.1021 21.1655 54.8626 21.3957C54.6444 21.6055 54.5727 21.8888 54.4897 22.1694C54.3732 22.5618 54.2651 22.9533 54.1159 23.3336C54.1019 23.3336 54.088 23.3318 54.074 23.3308C53.9547 22.9542 53.8437 22.5758 53.7319 22.1964C53.6452 21.9019 53.5725 21.5971 53.3395 21.3808C53.1195 21.1758 52.8193 21.1124 52.5397 21.0285C52.1743 20.9194 51.8089 20.8122 51.4473 20.692C51.4473 20.6761 51.4482 20.6603 51.4491 20.6445L51.4473 20.6454Z" fill="white"/>
<path d="M36.8167 40.8418C28.5367 40.0029 22.5049 32.6103 23.3438 24.3302C23.6785 21.0315 25.0524 18.0897 27.1096 15.7976C21.021 17.6898 16.3418 23.0626 15.6585 29.8055C15.4739 31.626 15.5951 33.4063 15.9792 35.0963C15.9885 35.0851 15.9969 35.0748 16.0062 35.0636C16.4928 34.5193 17.0203 34.2434 17.5722 34.2434C18.7429 34.2434 19.62 35.457 20.2604 36.3434C20.4897 36.6604 20.802 36.7899 21.3407 36.7899C21.571 36.7899 21.8133 36.7675 22.0706 36.7433C22.3362 36.7181 22.6103 36.693 22.8815 36.693C23.4044 36.693 24.1595 36.7778 24.6833 37.5132C25.0095 37.9709 25.1242 38.4183 25.0254 38.8452C24.8418 39.6394 23.9693 40.112 23.2003 40.5287C22.7631 40.7654 22.3101 41.0106 22.134 41.2389C21.6017 41.9278 20.856 42.0769 20.3415 42.1282C20.3256 42.13 20.3107 42.131 20.2949 42.131C20.2427 42.131 20.1905 42.1217 20.1401 42.1049C19.7841 41.98 19.442 41.8057 19.1102 41.6295C21.7648 44.9851 25.7208 47.3052 30.3133 47.7703C37.4916 48.4974 44.0584 44.4771 46.8911 38.2552C44.0491 40.2183 40.521 41.2184 36.8158 40.8428L36.8167 40.8418Z" fill="white"/>
<path d="M20.2967 41.6648C19.4596 41.3702 18.6552 40.756 17.8228 40.5267C16.6949 40.2172 16.2643 41.1279 15.2688 41.3162C14.3796 41.4849 14.016 40.6674 13.2703 40.4381C12.3531 40.1566 11.3017 40.8175 10.3006 40.6311C8.55566 40.3057 7.77081 38.5739 9.96782 38.3008C10.6529 38.2159 11.3725 38.3753 11.8171 37.7704C12.1769 37.2819 11.9113 36.5931 12.6141 36.3209C13.3291 36.0441 14.0869 36.6845 14.7925 36.69C15.7134 36.6966 15.8094 35.9854 16.3547 35.3758C17.7948 33.766 19.0308 35.4363 19.8837 36.6173C20.9603 38.1078 23.258 36.3144 24.3048 37.7844C25.5352 39.5106 22.4974 40.0093 21.7666 40.9545C21.4059 41.4215 20.9044 41.6042 20.2967 41.6648Z" fill="white"/>
</svg>
